# xmcd
#
# Track frame offsets: 
#        150
#        14973
#        28071
#        44544
#        64017
#        86640
#        101163
#        120561
#        144759
#        158307
#        183480
#
# Disc length: 2948 seconds
#
# Revision: 0
# Processed by: cddbd v1.5.2PL0 Copyright (c) Steve Scherf et al.
# Submitted via: ExactAudioCopy v1.0b1
#
DISCID=8f0b820b
DTITLE=Vince Hawkins and Company Slave - Vince Hawkins and Company Slave
DYEAR=2011
DGENRE=Blues
TTITLE0=The Gods Made Love
TTITLE1=Goin' To The Southside
TTITLE2=Three Kings
TTITLE3=It's Time
TTITLE4=Peace On Earth
TTITLE5=Is Love
TTITLE6=Medusa's Dream
TTITLE7=Ashes In My Whiskey
TTITLE8=Big City Blues
TTITLE9=My Ship
TTITLE10=Cathouse
EXTD=
EXTT0=
EXTT1=
EXTT2=
EXTT3=
EXTT4=
EXTT5=
EXTT6=
EXTT7=
EXTT8=
EXTT9=
EXTT10=
PLAYORDER=
